<mxfile host="app.diagrams.net" modified="2023-10-13T20:20:30.758Z" agent="Mozilla/5.0 (Macintosh; Intel Mac OS X 10_15_7) AppleWebKit/537.36 (KHTML, like Gecko) Chrome/118.0.0.0 Safari/537.36" etag="lvoQIWyNyiRQI6Uwl9CX" version="21.7.4" type="device">
  <diagram id="AIra0pvackN1RxZxVPas" name="Page-1">
    <mxGraphModel dx="1190" dy="1824" grid="1" gridSize="10" guides="1" tooltips="1" connect="1" arrows="1" fold="1" page="1" pageScale="1" pageWidth="850" pageHeight="1100" math="0" shadow="0">
      <root>
        <mxCell id="0" />
        <mxCell id="1" parent="0" />
        <mxCell id="b4ZN2M5RfPYAqQMjHC3d-15" style="edgeStyle=orthogonalEdgeStyle;rounded=0;orthogonalLoop=1;jettySize=auto;html=1;exitX=1;exitY=0.5;exitDx=0;exitDy=0;strokeColor=#010103;" parent="1" source="b4ZN2M5RfPYAqQMjHC3d-1" target="b4ZN2M5RfPYAqQMjHC3d-3" edge="1">
          <mxGeometry relative="1" as="geometry" />
        </mxCell>
        <mxCell id="b4ZN2M5RfPYAqQMjHC3d-1" value="frontend&lt;br&gt;3000&lt;br&gt;5002" style="ellipse;whiteSpace=wrap;html=1;aspect=fixed;" parent="1" vertex="1">
          <mxGeometry x="160" y="-40" width="80" height="80" as="geometry" />
        </mxCell>
        <mxCell id="b4ZN2M5RfPYAqQMjHC3d-26" style="edgeStyle=orthogonalEdgeStyle;rounded=0;orthogonalLoop=1;jettySize=auto;html=1;exitX=0;exitY=1;exitDx=0;exitDy=0;strokeColor=#010103;" parent="1" source="b4ZN2M5RfPYAqQMjHC3d-3" target="b4ZN2M5RfPYAqQMjHC3d-13" edge="1">
          <mxGeometry relative="1" as="geometry" />
        </mxCell>
        <mxCell id="b4ZN2M5RfPYAqQMjHC3d-27" style="edgeStyle=orthogonalEdgeStyle;rounded=0;orthogonalLoop=1;jettySize=auto;html=1;exitX=1;exitY=0;exitDx=0;exitDy=0;strokeColor=#010103;" parent="1" source="b4ZN2M5RfPYAqQMjHC3d-3" target="b4ZN2M5RfPYAqQMjHC3d-8" edge="1">
          <mxGeometry relative="1" as="geometry" />
        </mxCell>
        <mxCell id="b4ZN2M5RfPYAqQMjHC3d-3" value="backend&lt;br&gt;8080" style="ellipse;whiteSpace=wrap;html=1;aspect=fixed;" parent="1" vertex="1">
          <mxGeometry x="345" y="45" width="80" height="80" as="geometry" />
        </mxCell>
        <mxCell id="b4ZN2M5RfPYAqQMjHC3d-8" value="zeva-spilo-[env]&lt;br&gt;8008&lt;br&gt;5432" style="ellipse;whiteSpace=wrap;html=1;aspect=fixed;" parent="1" vertex="1">
          <mxGeometry x="500" y="170" width="90" height="90" as="geometry" />
        </mxCell>
        <mxCell id="b4ZN2M5RfPYAqQMjHC3d-13" value="minio&lt;br&gt;9000" style="ellipse;whiteSpace=wrap;html=1;aspect=fixed;" parent="1" vertex="1">
          <mxGeometry x="190" y="190" width="80" height="80" as="geometry" />
        </mxCell>
        <mxCell id="DNz0pwb5H6Iw8uUJaAUe-1" style="edgeStyle=orthogonalEdgeStyle;rounded=0;orthogonalLoop=1;jettySize=auto;html=1;entryX=0;entryY=0.5;entryDx=0;entryDy=0;strokeColor=#97D077;" parent="1" source="b4ZN2M5RfPYAqQMjHC3d-20" target="b4ZN2M5RfPYAqQMjHC3d-3" edge="1">
          <mxGeometry relative="1" as="geometry" />
        </mxCell>
        <mxCell id="DNz0pwb5H6Iw8uUJaAUe-3" style="edgeStyle=orthogonalEdgeStyle;rounded=0;orthogonalLoop=1;jettySize=auto;html=1;exitX=1;exitY=1;exitDx=0;exitDy=0;entryX=0;entryY=0.5;entryDx=0;entryDy=0;strokeColor=#97D077;" parent="1" source="b4ZN2M5RfPYAqQMjHC3d-20" target="b4ZN2M5RfPYAqQMjHC3d-13" edge="1">
          <mxGeometry relative="1" as="geometry">
            <Array as="points">
              <mxPoint x="90" y="230" />
            </Array>
          </mxGeometry>
        </mxCell>
        <mxCell id="DNz0pwb5H6Iw8uUJaAUe-6" style="edgeStyle=orthogonalEdgeStyle;rounded=0;orthogonalLoop=1;jettySize=auto;html=1;entryX=0;entryY=0.5;entryDx=0;entryDy=0;strokeColor=#97D077;" parent="1" source="b4ZN2M5RfPYAqQMjHC3d-20" target="b4ZN2M5RfPYAqQMjHC3d-1" edge="1">
          <mxGeometry relative="1" as="geometry">
            <Array as="points">
              <mxPoint x="65" />
            </Array>
          </mxGeometry>
        </mxCell>
        <mxCell id="b4ZN2M5RfPYAqQMjHC3d-20" value="external" style="ellipse;whiteSpace=wrap;html=1;aspect=fixed;" parent="1" vertex="1">
          <mxGeometry x="30" y="50" width="70" height="70" as="geometry" />
        </mxCell>
        <mxCell id="9xZVyRgoyZn5UuLwTAI5-3" value="" style="curved=1;endArrow=classic;html=1;exitX=1;exitY=1;exitDx=0;exitDy=0;entryX=1;entryY=0.5;entryDx=0;entryDy=0;strokeColor=#010103;" parent="1" source="b4ZN2M5RfPYAqQMjHC3d-8" target="b4ZN2M5RfPYAqQMjHC3d-8" edge="1">
          <mxGeometry width="50" height="50" relative="1" as="geometry">
            <mxPoint x="590" y="200" as="sourcePoint" />
            <mxPoint x="560" y="206" as="targetPoint" />
            <Array as="points">
              <mxPoint x="620" y="260" />
              <mxPoint x="640" y="200" />
              <mxPoint x="630" y="200" />
              <mxPoint x="600" y="180" />
            </Array>
          </mxGeometry>
        </mxCell>
        <mxCell id="jZ5XmgkILTjiQiPbq-w5-3" style="edgeStyle=orthogonalEdgeStyle;rounded=0;orthogonalLoop=1;jettySize=auto;html=1;entryX=1;entryY=0;entryDx=0;entryDy=0;strokeColor=#010103;" parent="1" source="jZ5XmgkILTjiQiPbq-w5-2" target="b4ZN2M5RfPYAqQMjHC3d-8" edge="1">
          <mxGeometry relative="1" as="geometry" />
        </mxCell>
        <mxCell id="jZ5XmgkILTjiQiPbq-w5-2" value="backend-mid" style="ellipse;whiteSpace=wrap;html=1;aspect=fixed;" parent="1" vertex="1">
          <mxGeometry x="630" y="-20" width="80" height="80" as="geometry" />
        </mxCell>
        <mxCell id="5H04mbbeuP7JrVoTDnXR-1" value="app: zeva-minio-dev" style="text;html=1;strokeColor=none;fillColor=none;align=center;verticalAlign=middle;whiteSpace=wrap;rounded=0;" parent="1" vertex="1">
          <mxGeometry x="155" y="270" width="150" height="22.5" as="geometry" />
        </mxCell>
        <mxCell id="5H04mbbeuP7JrVoTDnXR-4" value="app.kubernetes.io/instance: zeva-spilo-[env]" style="text;html=1;strokeColor=none;fillColor=none;align=center;verticalAlign=middle;whiteSpace=wrap;rounded=0;" parent="1" vertex="1">
          <mxGeometry x="480" y="260" width="270" height="20" as="geometry" />
        </mxCell>
        <mxCell id="5H04mbbeuP7JrVoTDnXR-9" value="app.kubernetes.io/instance: zeva-frontend" style="text;html=1;strokeColor=none;fillColor=none;align=center;verticalAlign=middle;whiteSpace=wrap;rounded=0;" parent="1" vertex="1">
          <mxGeometry x="100" y="40" width="230" height="20" as="geometry" />
        </mxCell>
        <mxCell id="5H04mbbeuP7JrVoTDnXR-10" value="openshift.io/deployer-pod.type: hook-mid" style="text;html=1;strokeColor=none;fillColor=none;align=center;verticalAlign=middle;whiteSpace=wrap;rounded=0;" parent="1" vertex="1">
          <mxGeometry x="550" y="-40" width="230" height="20" as="geometry" />
        </mxCell>
        <mxCell id="iu2YgGMF-e6qmB6fPWX2-2" style="edgeStyle=orthogonalEdgeStyle;rounded=0;orthogonalLoop=1;jettySize=auto;html=1;exitX=0;exitY=0.5;exitDx=0;exitDy=0;entryX=1;entryY=0;entryDx=0;entryDy=0;" parent="1" source="iu2YgGMF-e6qmB6fPWX2-1" edge="1" target="b4ZN2M5RfPYAqQMjHC3d-8">
          <mxGeometry relative="1" as="geometry">
            <mxPoint x="580" y="180" as="targetPoint" />
            <Array as="points">
              <mxPoint x="577" y="135" />
            </Array>
          </mxGeometry>
        </mxCell>
        <mxCell id="iu2YgGMF-e6qmB6fPWX2-1" value="Metabase from cthub" style="ellipse;whiteSpace=wrap;html=1;aspect=fixed;" parent="1" vertex="1">
          <mxGeometry x="740" y="100" width="70" height="70" as="geometry" />
        </mxCell>
        <mxCell id="4ebCO-aOfM0Xrt9OBQbu-1" value="app.kubernetes.io/instance: zeva-backend" style="text;html=1;strokeColor=none;fillColor=none;align=center;verticalAlign=middle;whiteSpace=wrap;rounded=0;" parent="1" vertex="1">
          <mxGeometry x="240" y="130" width="230" height="20" as="geometry" />
        </mxCell>
        <mxCell id="mF-6XTW2BXDFCHSf3zBh-1" value="zeva-crunchy-[env]&lt;br&gt;8080&lt;br&gt;2022&lt;br&gt;5432" style="ellipse;whiteSpace=wrap;html=1;aspect=fixed;" vertex="1" parent="1">
          <mxGeometry x="500" y="310" width="120" height="120" as="geometry" />
        </mxCell>
        <mxCell id="mF-6XTW2BXDFCHSf3zBh-6" value="" style="curved=1;endArrow=classic;html=1;exitX=1;exitY=1;exitDx=0;exitDy=0;strokeColor=#010103;entryX=1;entryY=0.5;entryDx=0;entryDy=0;" edge="1" parent="1" source="mF-6XTW2BXDFCHSf3zBh-1" target="mF-6XTW2BXDFCHSf3zBh-1">
          <mxGeometry width="50" height="50" relative="1" as="geometry">
            <mxPoint x="610" y="413" as="sourcePoint" />
            <mxPoint x="620" y="385" as="targetPoint" />
            <Array as="points">
              <mxPoint x="652" y="435" />
              <mxPoint x="672" y="375" />
              <mxPoint x="662" y="375" />
              <mxPoint x="632" y="355" />
            </Array>
          </mxGeometry>
        </mxCell>
      </root>
    </mxGraphModel>
  </diagram>
</mxfile>
